<svg preserveAspectRatio="none" width="100%" height="100%" overflow="visible" style="display: block;" viewBox="0 0 18 18" fill="none" xmlns="http://www.w3.org/2000/svg">
<g id="SVG">
<path id="Vector" d="M7.25325 3.102C7.29457 2.66725 7.4965 2.26353 7.81958 1.96971C8.14265 1.67589 8.56367 1.51307 9.00037 1.51307C9.43708 1.51307 9.8581 1.67589 10.1812 1.96971C10.5043 2.26353 10.7062 2.66725 10.7475 3.102C10.7723 3.38284 10.8645 3.65356 11.0161 3.89125C11.1677 4.12895 11.3744 4.32661 11.6186 4.46751C11.8628 4.60841 12.1374 4.6884 12.419 4.70072C12.7007 4.71303 12.9812 4.6573 13.2367 4.53825C13.6336 4.35808 14.0833 4.33201 14.4983 4.46511C14.9132 4.59821 15.2639 4.88096 15.4819 5.25833C15.6999 5.63569 15.7697 6.08068 15.6777 6.50668C15.5857 6.93268 15.3385 7.30921 14.9843 7.563C14.7535 7.72489 14.5652 7.93996 14.4352 8.19002C14.3052 8.44008 14.2373 8.71778 14.2373 8.99963C14.2373 9.28147 14.3052 9.55917 14.4352 9.80923C14.5652 10.0593 14.7535 10.2744 14.9843 10.4363C15.3385 10.69 15.5857 11.0666 15.6777 11.4926C15.7697 11.9186 15.6999 12.3636 15.4819 12.7409C15.2639 13.1183 14.9132 13.401 14.4983 13.5341C14.0833 13.6672 13.6336 13.6412 13.2367 13.461C12.9812 13.3419 12.7007 13.2862 12.419 13.2985C12.1374 13.3108 11.8628 13.3908 11.6186 13.5317C11.3744 13.6726 11.1677 13.8703 11.0161 14.108C10.8645 14.3457 10.7723 14.6164 10.7475 14.8973C10.7062 15.332 10.5043 15.7357 10.1812 16.0295C9.8581 16.3234 9.43708 16.4862 9.00037 16.4862C8.56367 16.4862 8.14265 16.3234 7.81958 16.0295C7.4965 15.7357 7.29457 15.332 7.25325 14.8973C7.22846 14.6163 7.13632 14.3455 6.98465 14.1077C6.83298 13.8699 6.62623 13.6722 6.38192 13.5313C6.13762 13.3904 5.86295 13.3104 5.58118 13.2982C5.29942 13.2859 5.01885 13.3418 4.76325 13.461C4.36642 13.6412 3.91674 13.6672 3.50175 13.5341C3.08676 13.401 2.73613 13.1183 2.51811 12.7409C2.3001 12.3636 2.23029 11.9186 2.32227 11.4926C2.41425 11.0666 2.66145 10.69 3.01575 10.4363C3.24646 10.2744 3.4348 10.0593 3.56482 9.80923C3.69484 9.55917 3.76272 9.28147 3.76272 8.99963C3.76272 8.71778 3.69484 8.44008 3.56482 8.19002C3.4348 7.93996 3.24646 7.72489 3.01575 7.563C2.66195 7.30908 2.41519 6.9327 2.32343 6.50699C2.23166 6.08128 2.30146 5.63666 2.51924 5.25953C2.73702 4.88241 3.08723 4.59973 3.50182 4.46643C3.9164 4.33313 4.36574 4.35873 4.7625 4.53825C5.01807 4.6573 5.29856 4.71303 5.58023 4.70072C5.86189 4.6884 6.13645 4.60841 6.38065 4.46751C6.62486 4.32661 6.83152 4.12895 6.98315 3.89125C7.13478 3.65356 7.22691 3.38284 7.25175 3.102" stroke="var(--stroke-0, #6F767E)" stroke-width="1.67" stroke-linecap="round" stroke-linejoin="round"/>
<path id="Vector_2" d="M9 11.25C10.2426 11.25 11.25 10.2426 11.25 9C11.25 7.75736 10.2426 6.75 9 6.75C7.75736 6.75 6.75 7.75736 6.75 9C6.75 10.2426 7.75736 11.25 9 11.25Z" stroke="var(--stroke-0, #6F767E)" stroke-width="1.67" stroke-linecap="round" stroke-linejoin="round"/>
</g>
</svg>
